<svg width="284" height="64" viewBox="0 0 284 64" fill="none" xmlns="http://www.w3.org/2000/svg">
<g clip-path="url(#clip0_122_2621)">
<path d="M67.3397 29.9379C65.9047 28.1752 63.9355 27.2745 61.3547 27.2745C58.4822 27.2745 56.0665 28.2991 54.136 30.3483C52.2107 32.3562 51.2661 34.8183 51.2661 37.6856C51.2661 40.553 52.2081 43.0177 54.136 45.0643C56.0639 47.0722 58.4822 48.0994 61.3547 48.0994C63.9381 48.0994 65.9047 47.1961 67.3397 45.4334V54.0199C67.3397 56.8485 65.6182 58.4047 62.707 58.4047C60.534 58.4047 58.9751 57.5453 58.0331 55.8213L52.7862 58.8538C54.6315 62.1754 57.8705 63.8142 62.5031 63.8142C65.4969 63.8142 68.0804 62.9935 70.1709 61.3134C72.2614 59.6745 73.3272 57.2563 73.3272 54.0173V27.8474H67.3422V29.9379H67.3397ZM65.946 41.1311C65.004 41.9905 63.8142 42.4422 62.3793 42.4422C60.9443 42.4422 59.7545 41.9905 58.8125 41.1311C57.8705 40.2691 57.4189 39.1232 57.4189 37.6856C57.4189 36.2481 57.8705 35.1022 58.8125 34.2402C59.7545 33.3808 60.9443 32.9291 62.3793 32.9291C63.8142 32.9291 65.004 33.3808 65.946 34.2402C66.888 35.1022 67.3397 36.2481 67.3397 37.6856C67.3397 39.1232 66.888 40.2691 65.946 41.1311Z" fill="#fafafa"/>
<path d="M86.6496 27.2745C83.6145 27.2745 81.0311 28.3404 78.9431 30.4309C76.8501 32.5239 75.7842 35.0635 75.7842 38.096C75.7842 41.1285 76.8501 43.7145 78.9431 45.8024C81.0336 47.8955 83.6145 48.9175 86.6496 48.9175C89.6846 48.9175 92.2655 47.8929 94.356 45.8024C96.4465 43.7119 97.5124 41.1311 97.5124 38.096C97.5124 35.0609 96.4465 32.5214 94.356 30.4309C92.2629 28.3404 89.6821 27.2745 86.6496 27.2745ZM90.0098 41.5827C89.1091 42.4834 88.0019 42.9351 86.6496 42.9351C85.2972 42.9351 84.19 42.4834 83.2867 41.5827C82.386 40.682 81.9343 39.5309 81.9343 38.096C81.9343 36.661 82.386 35.5126 83.2867 34.6118C84.19 33.7111 85.2946 33.2595 86.6496 33.2595C88.0045 33.2595 89.1091 33.7111 90.0098 34.6118C90.9106 35.5126 91.3622 36.6636 91.3622 38.096C91.3622 39.5284 90.9106 40.6794 90.0098 41.5827Z" fill="#fafafa"/>
<path d="M112.228 27.2745C109.604 27.2745 107.555 28.0926 106.12 29.7727V19.648H99.9668V48.3471H106.12V46.4192C107.552 48.1019 109.604 48.9201 112.228 48.9201C114.853 48.9201 117.23 47.8955 119.158 45.805C121.086 43.7145 122.028 41.1336 122.028 38.0986C122.028 35.0635 121.086 32.5239 119.158 30.4334C117.233 28.3429 114.933 27.277 112.228 27.277V27.2745ZM114.482 41.7453C113.581 42.646 112.432 43.0977 110.997 43.0977C109.562 43.0977 108.414 42.646 107.472 41.7453C106.571 40.8446 106.12 39.6135 106.12 38.096C106.12 36.5784 106.571 35.35 107.472 34.4467C108.414 33.5459 109.562 33.0943 110.997 33.0943C112.432 33.0943 113.581 33.5459 114.482 34.4467C115.424 35.3474 115.875 36.5784 115.875 38.096C115.875 39.6135 115.424 40.8446 114.482 41.7453Z" fill="#fafafa"/>
<path d="M134.364 27.2745C131.167 27.2745 128.542 28.2991 126.493 30.3896C124.485 32.4413 123.46 35.0222 123.46 38.096C123.46 41.1698 124.485 43.7945 126.534 45.8463C128.627 47.8981 131.373 48.9201 134.816 48.9201C138.752 48.9201 141.746 47.5264 143.756 44.6978L138.834 41.8692C137.892 42.8938 136.581 43.428 134.899 43.428C132.315 43.428 130.674 42.486 129.98 40.5581H144.536C144.698 39.7813 144.781 38.9606 144.781 38.0986C144.781 35.0248 143.795 32.4413 141.787 30.3921C139.82 28.3017 137.361 27.2771 134.367 27.2771L134.364 27.2745ZM129.856 35.9642C130.47 33.7911 131.946 32.7252 134.326 32.7252C136.705 32.7252 138.055 33.7911 138.669 35.9642H129.856Z" fill="#fafafa"/>
<path d="M153.39 31.4967V27.8474H147.238V48.3471H153.39V39.0819C153.39 37.2365 154.046 35.9229 155.316 35.1873C156.629 34.4079 158.023 34.1627 159.541 34.4079V27.437C156.753 27.437 154.17 28.872 153.39 31.4967Z" fill="#fafafa"/>
<path d="M173.395 27.2745C170.729 27.2745 168.762 28.0926 167.531 29.7727V27.8474H161.378V48.3471H167.531V37.1566C167.531 34.3692 169.007 32.9317 171.343 32.9317C173.433 32.9317 174.91 34.2428 174.91 36.6636V48.3471H181.06V35.7603C181.06 33.0943 180.322 31.0451 178.845 29.5276C177.413 28.01 175.565 27.2745 173.395 27.2745Z" fill="#fafafa"/>
<path d="M199.139 29.7727C197.704 28.0926 195.655 27.2745 193.03 27.2745C190.405 27.2745 188.028 28.3404 186.1 30.4309C184.175 32.5239 183.23 35.0635 183.23 38.096C183.23 41.1285 184.172 43.7145 186.1 45.8024C188.028 47.8955 190.325 48.9175 193.03 48.9175C195.735 48.9175 197.701 48.0994 199.139 46.4167V48.3446H205.289V27.8474H199.139V29.7727ZM197.786 41.7453C196.886 42.646 195.693 43.0977 194.261 43.0977C192.829 43.0977 191.636 42.646 190.733 41.7453C189.832 40.8446 189.381 39.6135 189.381 38.096C189.381 36.5785 189.832 35.35 190.733 34.4467C191.636 33.5459 192.826 33.0943 194.261 33.0943C195.696 33.0943 196.886 33.5459 197.786 34.4467C198.687 35.3474 199.139 36.5785 199.139 38.096C199.139 39.6135 198.687 40.8446 197.786 41.7453Z" fill="#fafafa"/>
<path d="M220.784 27.2745C218.118 27.2745 216.152 28.0926 214.921 29.7727V27.8474H208.768V48.3471H214.921V37.1566C214.921 34.3692 216.397 32.9317 218.733 32.9317C220.823 32.9317 222.299 34.2428 222.299 36.6636V48.3471H228.449V35.7603C228.449 33.0943 227.711 31.0451 226.235 29.5276C224.803 28.01 222.955 27.2745 220.784 27.2745Z" fill="#fafafa"/>
<path d="M239.436 22.1076L233.286 23.9529V27.8474H230.006V33.7524H233.286V41.0098C233.286 44.001 234.024 46.0527 235.539 47.2399C237.057 48.3884 239.764 48.7575 243.658 48.3471V42.7699C240.665 42.9351 239.434 42.6486 239.434 41.0072V33.7498H243.658V27.8448H239.434V22.105L239.436 22.1076Z" fill="#fafafa"/>
<path d="M256.036 48.9201C259.972 48.9201 262.966 47.5264 264.976 44.6978L260.055 41.8692C259.113 42.8938 257.801 43.428 256.119 43.428C253.535 43.428 251.894 42.486 251.2 40.5581H265.756C265.918 39.7813 266.001 38.9606 266.001 38.0986C266.001 35.0248 265.015 32.4413 263.007 30.3921C261.04 28.3016 258.581 27.277 255.587 27.277C252.389 27.277 249.765 28.3016 247.715 30.3921C245.708 32.4439 244.683 35.0248 244.683 38.0986C244.683 41.1723 245.708 43.7971 247.757 45.8489C249.85 47.9006 252.596 48.9227 256.039 48.9227L256.036 48.9201ZM255.546 32.7252C257.843 32.7252 259.275 33.7911 259.889 35.9642H251.076C251.69 33.7911 253.166 32.7252 255.543 32.7252H255.546Z" fill="#fafafa"/>
<path d="M281.086 47.2399C282.727 46.094 283.545 44.4113 283.545 42.1969C283.587 37.7295 279.855 36.2507 277.029 35.6364C275.06 35.1048 273.462 34.6531 273.462 33.8324C273.462 33.0117 274.035 32.6839 275.184 32.6839C276.332 32.6839 277.274 33.2982 277.93 34.4905L283.176 31.6619C281.496 28.8333 278.583 27.277 275.181 27.277C272.925 27.277 271 27.85 269.441 29.0398C267.924 30.227 267.147 31.8684 267.147 34.0002C267.147 38.1811 270.837 39.5774 273.663 40.3542C275.633 40.8472 277.23 41.3375 277.23 42.1582C277.23 43.0202 276.492 43.4306 275.018 43.4306C273.256 43.4306 272.066 42.6099 271.532 41.0123L266.202 44.0448C267.761 47.2838 270.711 48.9227 275.018 48.9227C277.437 48.9227 279.445 48.3497 281.086 47.2425V47.2399Z" fill="#fafafa"/>
<path d="M248.428 61.4346C247.749 61.4346 247.204 61.9637 247.204 62.7173C247.204 63.4709 247.749 64 248.428 64C249.107 64 249.651 63.4864 249.651 62.7173C249.651 61.9482 249.107 61.4346 248.428 61.4346Z" fill="#fafafa"/>
<path d="M256.867 53.0081C256.294 53.0081 255.871 53.4004 255.871 53.9734C255.871 54.5463 256.294 54.9386 256.867 54.9386C257.44 54.9386 257.863 54.5618 257.863 53.9734C257.863 53.385 257.44 53.0081 256.867 53.0081Z" fill="#fafafa"/>
<path d="M252.973 57.4937H256.369V63.8194H257.621V56.482H252.973V57.4937Z" fill="#fafafa"/>
<path d="M264.899 56.3013C263.75 56.3013 262.906 56.9207 262.135 57.7208H262.075L261.97 56.482H260.942V63.8193H262.197V58.7015C263.043 57.8266 263.632 57.3879 264.507 57.3879C265.699 57.3879 266.182 58.0382 266.182 59.4267V63.8193H267.436V59.259C267.436 57.3259 266.636 56.2987 264.899 56.2987V56.3013Z" fill="#fafafa"/>
<path d="M271.119 55.8626V56.482L269.02 56.5568V57.4937H271.119V63.8193H272.357V57.4937H275.423V56.482H272.357V55.8187C272.357 54.6418 272.886 53.9011 274.2 53.9011C274.835 53.9011 275.302 53.9914 275.906 54.247L276.193 53.3101C275.498 53.0236 274.804 52.8868 274.079 52.8868C272.055 52.8868 271.119 54.0792 271.119 55.86V55.8626Z" fill="#fafafa"/>
<path d="M279.922 56.3013C277.989 56.3013 276.298 57.7053 276.298 60.1675C276.298 62.6296 277.989 64.0026 279.922 64.0026C281.855 64.0026 283.546 62.5986 283.546 60.1675C283.546 57.7363 281.855 56.3013 279.922 56.3013ZM279.922 62.9599C278.518 62.9599 277.581 61.8424 277.581 60.1675C277.581 58.4925 278.518 57.344 279.922 57.344C281.326 57.344 282.263 58.477 282.263 60.1675C282.263 61.8579 281.326 62.9599 279.922 62.9599Z" fill="#fafafa"/>
<path d="M27.4035 33.6414C27.1119 35.337 25.6382 36.6275 23.86 36.6275C21.8728 36.6275 20.2597 35.017 20.2597 33.0272C20.2597 31.3135 21.4573 29.8811 23.0626 29.5198C22.0638 29.1017 20.9669 28.8694 19.8133 28.8694C15.1548 28.8694 11.379 32.6452 11.379 37.3036C11.379 41.9621 15.1548 45.7379 19.8133 45.7379C24.4717 45.7379 28.2475 41.9621 28.2475 37.3036C28.2475 35.99 27.9378 34.7512 27.401 33.6414H27.4035Z" fill="#fafafa"/>
<path d="M25.5814 0C23.1683 0 21.2095 1.95629 21.2095 4.37197V24.0097L29.9508 24.673V4.37197C29.9534 1.95629 27.9971 0 25.5814 0Z" fill="#fafafa"/>
<path d="M14.9767 4.37197C17.3898 4.37197 19.3487 6.33083 19.3487 8.74393V21.2817H10.6047V8.74135C10.6047 6.32825 12.5636 4.36938 14.9767 4.36938V4.37197Z" fill="#fafafa"/>
<path d="M4.37197 8.74136C1.95629 8.74136 0 10.6977 0 13.1133V38.0289L8.74135 21.8392V13.1133C8.74135 10.7002 6.78506 8.74136 4.36938 8.74136H4.37197Z" fill="#fafafa"/>
<path d="M31.7316 40.2587C30.405 45.6088 25.5685 49.5885 19.8132 49.5859C13.3611 49.5859 7.89481 44.4165 7.54898 37.9747C7.16959 30.898 12.8191 25.0188 19.8158 25.0188C25.5685 25.0188 30.405 28.9959 31.7316 34.346C32.1419 36.0003 33.6827 37.123 35.3861 37.123C37.794 37.123 39.6264 34.8751 39.0483 32.5368C36.8055 23.4496 28.2939 16.8349 18.3628 17.542C8.61229 18.2337 0.725202 26.1389 0.0490182 35.8919C-0.753627 47.4748 8.40582 57.1194 19.8158 57.1194C29.0759 57.1194 36.8494 50.768 39.0225 42.184C39.6264 39.8045 37.8405 37.4869 35.3835 37.4869C33.6801 37.4869 32.1419 38.6096 31.7316 40.2613V40.2587Z" fill="#fafafa"/>
</g>
<defs>
<clipPath id="clip0_122_2621">
<rect width="283.545" height="64" fill="white"/>
</clipPath>
</defs>
</svg>
