<?xml version="1.0" encoding="UTF-8" standalone="no"?>
<!DOCTYPE svg PUBLIC "-//W3C//DTD SVG 1.1//EN" "http://www.w3.org/Graphics/SVG/1.1/DTD/svg11.dtd">
<svg width="100%" height="100%" viewBox="0 0 2081 1629" version="1.1" xmlns="http://www.w3.org/2000/svg" xmlns:xlink="http://www.w3.org/1999/xlink" xml:space="preserve" xmlns:serif="http://www.serif.com/" style="fill-rule:evenodd;clip-rule:evenodd;stroke-linejoin:round;stroke-miterlimit:2;">
    <g transform="matrix(1,0,0,1,-13032.9,-151.766)">
        <g transform="matrix(4.16667,0,0,4.16667,11475,0)">
            <g transform="matrix(1,0,0,1,401.704,346.655)">
                <path d="M0,27.13L15.092,-7.148L27.801,-7.148L27.801,-5.743L26.273,-5.743C24.236,-5.743 22.902,-5.574 22.271,-5.238C21.64,-4.902 21.218,-4.276 21.004,-3.359C20.79,-2.443 20.683,-0.264 20.683,3.178L20.683,23.494C20.683,26.753 20.765,28.886 20.927,29.895C21.09,30.902 21.502,31.651 22.165,32.14C22.826,32.629 24.094,32.873 25.968,32.873L27.801,32.873L27.801,34.278L8.004,34.278L8.004,32.873L9.471,32.873C11.223,32.873 12.438,32.65 13.121,32.201C13.804,31.754 14.241,31.056 14.436,30.109C14.629,29.162 14.726,26.957 14.726,23.494L14.726,-2.87L-1.68,34.278L-3.115,34.278L-19.644,-2.87L-19.644,21.386C-19.644,24.706 -19.542,26.967 -19.338,28.169C-19.135,29.371 -18.504,30.424 -17.444,31.33C-16.386,32.237 -14.897,32.751 -12.984,32.873L-12.984,34.278L-27.801,34.278L-27.801,32.873C-26.029,32.772 -24.588,32.288 -23.479,31.422C-22.367,30.557 -21.69,29.492 -21.447,28.23C-21.201,26.967 -21.079,24.625 -21.079,21.203L-21.079,3.178C-21.079,-0.121 -21.176,-2.249 -21.37,-3.206C-21.563,-4.164 -21.971,-4.826 -22.592,-5.193C-23.214,-5.559 -24.573,-5.743 -26.67,-5.743L-27.801,-5.743L-27.801,-7.148L-15.184,-7.148L0,27.13Z" style="fill:rgb(250,250,250);fill-rule:nonzero;"/>
            </g>
        </g>
        <g transform="matrix(4.16667,0,0,4.16667,11475,0)">
            <g transform="matrix(1,0,0,1,484.696,360.282)">
                <path d="M0,-0.122C0,6.538 1.33,11.538 3.988,14.878C6.646,18.218 10.633,19.888 15.947,19.888C20.612,19.888 24.298,18.218 27.008,14.878C29.717,11.538 31.071,6.559 31.071,-0.061C31.071,-6.497 29.736,-11.431 27.068,-14.863C24.399,-18.295 20.531,-20.011 15.46,-20.011C10.469,-20.011 6.646,-18.335 3.988,-14.985C1.33,-11.634 0,-6.68 0,-0.122M-6.995,-0.336C-6.995,-6.731 -4.856,-11.864 -0.579,-15.733C3.697,-19.603 9.034,-21.538 15.429,-21.538C21.885,-21.538 27.277,-19.623 31.605,-15.794C35.933,-11.965 38.098,-6.741 38.098,-0.122C38.098,6.294 36.024,11.487 31.88,15.459C27.736,19.43 22.282,21.416 15.521,21.416C8.941,21.416 3.545,19.43 -0.672,15.459C-4.887,11.487 -6.995,6.223 -6.995,-0.336" style="fill:rgb(250,250,250);fill-rule:nonzero;"/>
            </g>
        </g>
        <g transform="matrix(4.16667,0,0,4.16667,11475,0)">
            <g transform="matrix(1,0,0,1,583.943,360.312)">
                <path d="M0,-0.763C1.528,-0.804 3.105,-0.866 4.735,-0.946C6.364,-1.028 7.78,-1.252 8.982,-1.618C10.183,-1.986 11.156,-2.52 11.899,-3.222C12.643,-3.926 13.229,-4.847 13.655,-5.988C14.084,-7.127 14.298,-8.533 14.298,-10.204C14.298,-13.116 13.569,-15.448 12.113,-17.2C10.656,-18.951 7.485,-19.826 2.597,-19.826C1.843,-19.826 0.977,-19.786 0,-19.705L0,-0.763ZM31.313,20.622L20.164,20.622C18.187,19.237 15.163,15.612 11.09,9.746C9.786,7.872 8.431,6.075 7.026,4.354C5.621,2.633 4.654,1.584 4.124,1.207C3.595,0.83 2.77,0.642 1.649,0.642L0,0.642L0,9.838C0,13.096 0.076,15.23 0.229,16.238C0.382,17.246 0.789,17.995 1.45,18.484C2.112,18.972 3.381,19.216 5.255,19.216L7.239,19.216L7.239,20.622L-12.588,20.622L-12.588,19.216L-11.243,19.216C-9.471,19.216 -8.244,18.993 -7.562,18.544C-6.879,18.097 -6.445,17.399 -6.263,16.452C-6.079,15.505 -5.988,13.3 -5.988,9.838L-5.988,-10.478C-5.988,-13.778 -6.079,-15.906 -6.263,-16.863C-6.445,-17.821 -6.854,-18.482 -7.485,-18.849C-8.117,-19.216 -9.481,-19.399 -11.579,-19.399L-12.282,-19.399L-12.282,-20.805L-6.354,-21.11C-2.403,-21.293 0.733,-21.385 3.056,-21.385C7.005,-21.385 10.219,-21.018 12.692,-20.285C15.168,-19.552 17.169,-18.35 18.696,-16.68C20.225,-15.01 20.987,-13.014 20.987,-10.692C20.987,-7.984 19.989,-5.671 17.994,-3.758C15.997,-1.843 13.065,-0.651 9.195,-0.182C10.926,0.653 13.718,3.667 17.565,8.86C20.703,13.076 23.167,15.836 24.96,17.139C26.752,18.443 28.87,19.135 31.313,19.216L31.313,20.622Z" style="fill:rgb(250,250,250);fill-rule:nonzero;"/>
            </g>
        </g>
        <g transform="matrix(4.16667,0,0,4.16667,11475,0)">
            <g transform="matrix(1,0,0,1,696.449,351.696)">
                <path d="M0,17.048L-0.306,29.237L-35.501,29.237L-35.501,27.832L-34.277,27.832C-32.506,27.832 -31.28,27.609 -30.597,27.16C-29.914,26.713 -29.477,26.015 -29.283,25.068C-29.089,24.121 -28.992,21.916 -28.992,18.453L-28.992,-1.863C-28.992,-5.162 -29.089,-7.29 -29.283,-8.247C-29.477,-9.205 -29.884,-9.867 -30.505,-10.234C-31.127,-10.6 -32.486,-10.784 -34.583,-10.784L-35.501,-10.784L-35.501,-12.189L-15.611,-12.189L-15.611,-10.784L-17.444,-10.784C-19.482,-10.784 -20.815,-10.615 -21.447,-10.279C-22.078,-9.943 -22.501,-9.317 -22.714,-8.4C-22.928,-7.484 -23.035,-5.305 -23.035,-1.863L-23.035,19.828C-23.035,22.822 -22.953,24.696 -22.792,25.449C-22.628,26.203 -22.185,26.789 -21.462,27.206C-20.738,27.624 -19.186,27.832 -16.803,27.832L-13.657,27.832C-11.11,27.832 -9.221,27.609 -7.989,27.16C-6.757,26.713 -5.586,25.735 -4.477,24.227C-3.365,22.72 -2.353,20.328 -1.437,17.048L0,17.048Z" style="fill:rgb(250,250,250);fill-rule:nonzero;"/>
            </g>
        </g>
        <g transform="matrix(4.16667,0,0,4.16667,11475,0)">
            <g transform="matrix(1,0,0,1,767.252,355.576)">
                <path d="M0,8.708L-7.332,-8.951L-14.634,8.708L0,8.708ZM0.52,10.083L-15.215,10.083L-16.283,12.71C-17.871,16.519 -18.666,19.003 -18.666,20.164C-18.666,21.406 -18.244,22.349 -17.397,22.99C-16.553,23.632 -15.469,23.952 -14.145,23.952L-14.145,25.357L-26.457,25.357L-26.457,23.952C-24.623,23.667 -23.26,23.02 -22.363,22.013C-21.467,21.004 -20.388,18.881 -19.125,15.642C-19.022,15.337 -18.534,14.156 -17.658,12.099L-5.621,-16.649L-4.43,-16.649L9.41,16.254L11.304,20.592C11.73,21.569 12.307,22.338 13.03,22.898C13.752,23.458 14.837,23.81 16.283,23.952L16.283,25.357L0,25.357L0,23.952C1.997,23.952 3.346,23.805 4.048,23.509C4.75,23.214 5.102,22.629 5.102,21.752C5.102,21.305 4.634,19.97 3.696,17.75L0.52,10.083Z" style="fill:rgb(250,250,250);fill-rule:nonzero;"/>
            </g>
        </g>
        <g transform="matrix(4.16667,0,0,4.16667,11475,0)">
            <g transform="matrix(1,0,0,1,865.459,339.507)">
                <path d="M0,42.374L-29.299,3.544L-29.299,32.292C-29.299,34.675 -29.181,36.244 -28.947,36.997C-28.713,37.751 -28.045,38.444 -26.946,39.074C-25.846,39.707 -24.195,40.021 -21.997,40.021L-21.997,41.427L-37.455,41.427L-37.455,40.021C-35.479,39.879 -33.972,39.517 -32.934,38.937C-31.895,38.357 -31.278,37.73 -31.085,37.058C-30.891,36.386 -30.794,34.798 -30.794,32.292L-30.794,10.327C-30.794,7.15 -30.942,5.021 -31.237,3.942C-31.533,2.862 -32.002,2.17 -32.643,1.864C-33.284,1.559 -34.715,1.406 -36.936,1.406L-36.936,0L-24.716,0L-0.184,32.415L-0.184,7.638C-0.184,5.805 -0.371,4.522 -0.748,3.789C-1.125,3.055 -1.895,2.476 -3.056,2.047C-4.217,1.62 -5.61,1.406 -7.239,1.406L-7.239,0L7.79,0L7.79,1.406C6.038,1.548 4.659,1.884 3.651,2.414C2.643,2.944 2.001,3.58 1.726,4.323C1.451,5.067 1.313,6.325 1.313,8.097L1.313,42.374L0,42.374Z" style="fill:rgb(250,250,250);fill-rule:nonzero;"/>
            </g>
        </g>
        <g transform="matrix(4.16667,0,0,4.16667,11475,0)">
            <g transform="matrix(1,0,0,1,633.773,144.093)">
                <path d="M0,-13.066L-0.401,-13.605C-1.94,-15.67 -4.889,-16.101 -6.954,-14.562L-16.026,-5.201L-25.098,-14.562C-27.163,-16.101 -30.111,-15.67 -31.65,-13.605L-32.053,-13.066C-33.592,-11.001 -33.161,-8.052 -31.097,-6.513L-19.728,1.959C-18.629,2.779 -17.28,3.035 -16.026,2.788C-14.772,3.035 -13.424,2.779 -12.324,1.959L-0.956,-6.513C1.109,-8.052 1.539,-11.001 0,-13.066" style="fill:rgb(250,250,250);fill-rule:nonzero;"/>
            </g>
        </g>
        <g transform="matrix(4.16667,0,0,4.16667,11475,0)">
            <g transform="matrix(1,0,0,1,654.784,123.578)">
                <path d="M0,-16.016C0,-20.814 -5.503,-24.703 -12.291,-24.703C-14.872,-24.703 -17.267,-24.14 -19.244,-23.179C-19.407,-23.341 -19.244,-23.179 -19.244,-23.179C-19.244,-23.179 -28.759,-16.619 -37.019,-16.736C-45.278,-16.853 -54.417,-22.985 -54.417,-22.985C-54.563,-22.834 -54.273,-23.135 -54.417,-22.985C-56.465,-24.064 -59.005,-24.703 -61.756,-24.703C-68.544,-24.703 -74.047,-20.814 -74.047,-16.016C-74.047,-12.039 -70.859,-12.088 -65.408,-9.4C-72.87,2.006 -72.575,8.687 -72.575,8.687C-72.575,8.687 -61.012,-7.581 -37.019,-7.374C-13.026,-7.167 0,8.687 0,8.687C-1.363,2.085 -4.682,-4.297 -8.201,-9.613C-3.018,-12.09 0,-12.146 0,-16.016" style="fill:rgb(250,250,250);fill-rule:nonzero;"/>
            </g>
        </g>
        <g transform="matrix(4.16667,0,0,4.16667,11475,0)">
            <g transform="matrix(0,-1,-1,0,621.278,133.165)">
                <path d="M-30.579,-26.519C-35.588,-26.519 -31.368,-13.737 -31.368,2.03C-31.368,17.797 -35.588,30.579 -30.579,30.579C-25.57,30.579 -21.51,17.797 -21.51,2.03C-21.51,-13.737 -25.57,-26.519 -30.579,-26.519" style="fill:rgb(250,250,250);fill-rule:nonzero;"/>
            </g>
        </g>
        <g transform="matrix(4.16667,0,0,4.16667,11475,0)">
            <g transform="matrix(1,0,0,1,661.09,229.761)">
                <path d="M0,-104.255C0.013,-104.195 0.037,-104.125 0.066,-104.049C0.044,-104.055 0.022,-104.063 0,-104.068C0,-104.068 0.049,-104.005 0.136,-103.885C0.353,-103.423 0.8,-102.751 1.412,-101.957C4.523,-96.897 11.292,-83.347 5.973,-68.004C5.973,-68.004 5.982,-68.008 6,-68.017C-3.547,-48.819 -22.512,-43.016 -44.346,-43.016C-66.025,-43.016 -84.864,-48.734 -94.468,-67.608C-94.434,-67.59 -94.409,-67.579 -94.409,-67.579C-99.729,-82.922 -92.96,-96.472 -89.849,-101.531C-89.236,-102.326 -88.789,-102.998 -88.572,-103.46C-88.485,-103.58 -88.437,-103.643 -88.437,-103.643C-88.459,-103.637 -88.48,-103.63 -88.503,-103.624C-88.474,-103.7 -88.45,-103.77 -88.437,-103.83C-88.437,-103.83 -101.094,-109.846 -98.895,-125.798C-97.301,-133.782 -94.936,-141.273 -91.927,-148.079C-87.666,-157.716 -74.983,-160.056 -67.685,-152.457C-61.587,-146.107 -52.937,-142.143 -43.343,-142.143C-34.298,-142.143 -26.094,-145.666 -20.075,-151.389C-12.529,-158.565 -0.132,-156.162 3.916,-146.568C6.919,-139.45 9.229,-131.62 10.703,-123.286C11.09,-109.528 0,-104.255 0,-104.255M75.159,-126.321C73.263,-129.346 68.584,-127.924 68.675,-124.356C69.212,-103.432 58.166,-84.731 53.339,-84.742C50.711,-84.748 49.547,-108.618 39.599,-135.28C36.945,-142.39 33.557,-148.858 30.02,-154.572C16.816,-175.903 -5.62,-189.876 -30.566,-192.529C-35.582,-193.063 -40.676,-193.337 -45.833,-193.337C-49.748,-193.337 -53.627,-193.178 -57.462,-192.868C-83.434,-190.77 -106.974,-176.616 -120.662,-154.445C-124.171,-148.762 -127.529,-142.337 -130.162,-135.28C-140.111,-108.618 -141.274,-84.748 -143.903,-84.742C-148.865,-84.73 -160.401,-104.498 -159.167,-126.124C-158.962,-129.716 -163.674,-131.216 -165.632,-128.198C-180.116,-105.87 -188.528,-79.238 -188.528,-50.641C-188.528,17.395 -140.911,74.299 -77.187,88.588C-74.981,89.082 -72.883,87.42 -72.885,85.161L-72.905,53.28C-72.912,42.246 -75.058,31.318 -79.222,21.1L-97.756,-24.368C-98.117,-25.255 -98.263,-26.217 -98.187,-27.172C-98.183,-27.215 -98.18,-27.259 -98.176,-27.302C-97.846,-31.097 -94.162,-33.666 -90.492,-32.647L-66.159,-25.893C-64.302,-25.893 -62.782,-22.166 -62.782,-17.61L-62.782,-12.712C-62.782,-2.701 -54.667,5.414 -44.656,5.414C-34.646,5.414 -26.53,-2.701 -26.53,-12.712L-26.53,-18.108C-26.53,-22.664 -25.011,-26.391 -23.153,-26.391L1.271,-32.747C4.838,-33.675 8.462,-31.248 8.837,-27.582C8.851,-27.446 8.863,-27.31 8.874,-27.172C8.95,-26.217 8.805,-25.255 8.443,-24.368L-9.49,19.627C-13.669,29.879 -15.814,40.846 -15.808,51.917L-15.786,84.458C-15.785,86.747 -13.633,88.415 -11.412,87.865C50.767,72.463 96.862,16.299 96.862,-50.641C96.862,-78.442 88.91,-104.384 75.159,-126.321" style="fill:rgb(250,250,250);fill-rule:nonzero;"/>
            </g>
        </g>
    </g>
</svg>
